<mxfile host="app.diagrams.net" agent="Mozilla/5.0 (Windows NT 10.0; Win64; x64) AppleWebKit/537.36 (KHTML, like Gecko) Chrome/132.0.0.0 Safari/537.36" version="26.0.10" pages="4">
  <diagram id="DBYNxb3JSRHo5_lxv5Yp" name="User Authentication">
    <mxGraphModel grid="1" page="1" gridSize="10" guides="1" tooltips="1" connect="1" arrows="1" fold="1" pageScale="1" pageWidth="850" pageHeight="1100" math="0" shadow="0">
      <root>
        <mxCell id="0" />
        <mxCell id="1" parent="0" />
        <mxCell id="duYXOOo8xtqqBxTqv4lX-18" value="" style="ellipse;whiteSpace=wrap;html=1;fillColor=#1ba1e2;fontColor=#ffffff;strokeColor=#006EAF;" vertex="1" parent="1">
          <mxGeometry x="226.25" y="230" width="40" height="40" as="geometry" />
        </mxCell>
        <mxCell id="duYXOOo8xtqqBxTqv4lX-19" value="User Start" style="text;html=1;align=center;verticalAlign=middle;resizable=0;points=[];autosize=1;strokeColor=none;fillColor=none;" vertex="1" parent="1">
          <mxGeometry x="210" y="200" width="80" height="30" as="geometry" />
        </mxCell>
        <mxCell id="duYXOOo8xtqqBxTqv4lX-26" style="edgeStyle=orthogonalEdgeStyle;rounded=0;orthogonalLoop=1;jettySize=auto;html=1;entryX=0;entryY=0.5;entryDx=0;entryDy=0;" edge="1" parent="1" source="duYXOOo8xtqqBxTqv4lX-20" target="duYXOOo8xtqqBxTqv4lX-24">
          <mxGeometry relative="1" as="geometry" />
        </mxCell>
        <mxCell id="duYXOOo8xtqqBxTqv4lX-20" value="Landing page" style="rounded=1;whiteSpace=wrap;html=1;" vertex="1" parent="1">
          <mxGeometry x="200" y="300" width="100" height="30" as="geometry" />
        </mxCell>
        <mxCell id="duYXOOo8xtqqBxTqv4lX-21" style="edgeStyle=orthogonalEdgeStyle;rounded=0;orthogonalLoop=1;jettySize=auto;html=1;entryX=0.465;entryY=-0.069;entryDx=0;entryDy=0;entryPerimeter=0;" edge="1" parent="1" source="duYXOOo8xtqqBxTqv4lX-18" target="duYXOOo8xtqqBxTqv4lX-20">
          <mxGeometry relative="1" as="geometry" />
        </mxCell>
        <mxCell id="duYXOOo8xtqqBxTqv4lX-28" style="edgeStyle=orthogonalEdgeStyle;rounded=0;orthogonalLoop=1;jettySize=auto;html=1;entryX=0;entryY=0.5;entryDx=0;entryDy=0;" edge="1" parent="1" source="duYXOOo8xtqqBxTqv4lX-23" target="duYXOOo8xtqqBxTqv4lX-27">
          <mxGeometry relative="1" as="geometry" />
        </mxCell>
        <mxCell id="duYXOOo8xtqqBxTqv4lX-23" value="Sign-In" style="ellipse;whiteSpace=wrap;html=1;" vertex="1" parent="1">
          <mxGeometry x="351.25" y="280" width="54" height="30" as="geometry" />
        </mxCell>
        <mxCell id="duYXOOo8xtqqBxTqv4lX-35" style="edgeStyle=orthogonalEdgeStyle;rounded=0;orthogonalLoop=1;jettySize=auto;html=1;entryX=0;entryY=0.5;entryDx=0;entryDy=0;" edge="1" parent="1" source="duYXOOo8xtqqBxTqv4lX-24" target="duYXOOo8xtqqBxTqv4lX-34">
          <mxGeometry relative="1" as="geometry" />
        </mxCell>
        <mxCell id="duYXOOo8xtqqBxTqv4lX-24" value="Sign-up" style="ellipse;whiteSpace=wrap;html=1;" vertex="1" parent="1">
          <mxGeometry x="351.25" y="320" width="54" height="30" as="geometry" />
        </mxCell>
        <mxCell id="duYXOOo8xtqqBxTqv4lX-25" style="edgeStyle=orthogonalEdgeStyle;rounded=0;orthogonalLoop=1;jettySize=auto;html=1;entryX=0.007;entryY=0.5;entryDx=0;entryDy=0;entryPerimeter=0;" edge="1" parent="1" source="duYXOOo8xtqqBxTqv4lX-20" target="duYXOOo8xtqqBxTqv4lX-23">
          <mxGeometry relative="1" as="geometry" />
        </mxCell>
        <mxCell id="XWNTRZwGWIwZaCSQwnwD-6" style="edgeStyle=orthogonalEdgeStyle;rounded=0;orthogonalLoop=1;jettySize=auto;html=1;entryX=0.5;entryY=1;entryDx=0;entryDy=0;exitX=0.5;exitY=0;exitDx=0;exitDy=0;" edge="1" parent="1" source="duYXOOo8xtqqBxTqv4lX-27" target="XWNTRZwGWIwZaCSQwnwD-2">
          <mxGeometry relative="1" as="geometry">
            <Array as="points">
              <mxPoint x="462.25" y="260" />
              <mxPoint x="543.25" y="260" />
            </Array>
          </mxGeometry>
        </mxCell>
        <mxCell id="duYXOOo8xtqqBxTqv4lX-27" value="Form" style="rounded=1;whiteSpace=wrap;html=1;" vertex="1" parent="1">
          <mxGeometry x="440" y="280" width="44" height="30" as="geometry" />
        </mxCell>
        <mxCell id="XWNTRZwGWIwZaCSQwnwD-4" style="edgeStyle=orthogonalEdgeStyle;rounded=0;orthogonalLoop=1;jettySize=auto;html=1;entryX=0;entryY=0.5;entryDx=0;entryDy=0;" edge="1" parent="1" source="duYXOOo8xtqqBxTqv4lX-34" target="XWNTRZwGWIwZaCSQwnwD-1">
          <mxGeometry relative="1" as="geometry" />
        </mxCell>
        <mxCell id="duYXOOo8xtqqBxTqv4lX-34" value="Form" style="rounded=1;whiteSpace=wrap;html=1;" vertex="1" parent="1">
          <mxGeometry x="440" y="320" width="44" height="30" as="geometry" />
        </mxCell>
        <mxCell id="sAypOU3uli7hoj_GVIWo-4" style="edgeStyle=orthogonalEdgeStyle;rounded=0;orthogonalLoop=1;jettySize=auto;html=1;entryX=0.5;entryY=0;entryDx=0;entryDy=0;" edge="1" parent="1" source="XWNTRZwGWIwZaCSQwnwD-1" target="sAypOU3uli7hoj_GVIWo-3">
          <mxGeometry relative="1" as="geometry" />
        </mxCell>
        <mxCell id="XWNTRZwGWIwZaCSQwnwD-1" value="Add add email/ password/ retype/ personal info, etc." style="rounded=1;whiteSpace=wrap;html=1;" vertex="1" parent="1">
          <mxGeometry x="590.25" y="307.5" width="130" height="55" as="geometry" />
        </mxCell>
        <mxCell id="sAypOU3uli7hoj_GVIWo-7" style="edgeStyle=orthogonalEdgeStyle;rounded=0;orthogonalLoop=1;jettySize=auto;html=1;entryX=1;entryY=0.5;entryDx=0;entryDy=0;" edge="1" parent="1" source="XWNTRZwGWIwZaCSQwnwD-2" target="sAypOU3uli7hoj_GVIWo-3">
          <mxGeometry relative="1" as="geometry">
            <Array as="points">
              <mxPoint x="736.25" y="215" />
              <mxPoint x="736.25" y="405" />
            </Array>
          </mxGeometry>
        </mxCell>
        <mxCell id="XWNTRZwGWIwZaCSQwnwD-2" value="Prompt email/ password" style="rounded=1;whiteSpace=wrap;html=1;" vertex="1" parent="1">
          <mxGeometry x="496.25" y="200" width="94" height="30" as="geometry" />
        </mxCell>
        <mxCell id="sAypOU3uli7hoj_GVIWo-2" style="edgeStyle=orthogonalEdgeStyle;rounded=0;orthogonalLoop=1;jettySize=auto;html=1;entryX=1;entryY=0.25;entryDx=0;entryDy=0;exitX=0.5;exitY=0;exitDx=0;exitDy=0;" edge="1" parent="1" source="XWNTRZwGWIwZaCSQwnwD-3" target="duYXOOo8xtqqBxTqv4lX-34">
          <mxGeometry relative="1" as="geometry">
            <Array as="points">
              <mxPoint x="406.25" y="190" />
              <mxPoint x="406.25" y="170" />
              <mxPoint x="606.25" y="170" />
              <mxPoint x="606.25" y="290" />
              <mxPoint x="506.25" y="290" />
              <mxPoint x="506.25" y="328" />
            </Array>
          </mxGeometry>
        </mxCell>
        <mxCell id="XWNTRZwGWIwZaCSQwnwD-3" value="Forgot passowrd/ dont have an account? --&amp;gt; create account" style="rounded=1;whiteSpace=wrap;html=1;" vertex="1" parent="1">
          <mxGeometry x="331.75" y="190" width="152.25" height="50" as="geometry" />
        </mxCell>
        <mxCell id="XWNTRZwGWIwZaCSQwnwD-5" style="edgeStyle=orthogonalEdgeStyle;rounded=0;orthogonalLoop=1;jettySize=auto;html=1;entryX=0.566;entryY=1.054;entryDx=0;entryDy=0;entryPerimeter=0;" edge="1" parent="1" source="duYXOOo8xtqqBxTqv4lX-27" target="XWNTRZwGWIwZaCSQwnwD-3">
          <mxGeometry relative="1" as="geometry" />
        </mxCell>
        <mxCell id="sAypOU3uli7hoj_GVIWo-3" value="Dashboard page" style="rounded=1;whiteSpace=wrap;html=1;" vertex="1" parent="1">
          <mxGeometry x="605.25" y="390" width="100" height="30" as="geometry" />
        </mxCell>
        <mxCell id="TnYUUUwhNlrPh1BjTefV-1" value="&lt;span style=&quot;font-size: 14px;&quot;&gt;&lt;b&gt;User Authentication&lt;/b&gt;&lt;/span&gt;" style="text;html=1;align=center;verticalAlign=middle;whiteSpace=wrap;rounded=0;" vertex="1" parent="1">
          <mxGeometry x="340" y="100" width="270" height="30" as="geometry" />
        </mxCell>
      </root>
    </mxGraphModel>
  </diagram>
  <diagram name="Income" id="NXyfijo3L1Boy2GomobR">
    <mxGraphModel dx="1887" dy="877" grid="1" gridSize="10" guides="1" tooltips="1" connect="1" arrows="1" fold="1" page="1" pageScale="1" pageWidth="850" pageHeight="1100" math="0" shadow="0">
      <root>
        <mxCell id="0" />
        <mxCell id="1" parent="0" />
        <mxCell id="ED0fjd736jUiSrUg1rBQ-2" style="rounded=0;orthogonalLoop=1;jettySize=auto;html=1;exitX=0.5;exitY=1;exitDx=0;exitDy=0;endArrow=none;endFill=0;" parent="1" source="ED0fjd736jUiSrUg1rBQ-1" edge="1">
          <mxGeometry relative="1" as="geometry">
            <mxPoint x="145" y="200" as="targetPoint" />
          </mxGeometry>
        </mxCell>
        <mxCell id="ED0fjd736jUiSrUg1rBQ-1" value="" style="ellipse;whiteSpace=wrap;html=1;fillColor=#1ba1e2;fontColor=#ffffff;strokeColor=#006EAF;" parent="1" vertex="1">
          <mxGeometry x="120" y="60" width="50" height="40" as="geometry" />
        </mxCell>
        <mxCell id="ED0fjd736jUiSrUg1rBQ-3" value="It is assumed that the user is logged in and on the dashboard" style="text;html=1;strokeColor=none;fillColor=none;align=center;verticalAlign=middle;whiteSpace=wrap;rounded=0;" parent="1" vertex="1">
          <mxGeometry x="20" y="20" width="250" height="40" as="geometry" />
        </mxCell>
        <mxCell id="ED0fjd736jUiSrUg1rBQ-5" style="edgeStyle=orthogonalEdgeStyle;rounded=0;orthogonalLoop=1;jettySize=auto;html=1;exitX=0.5;exitY=1;exitDx=0;exitDy=0;endArrow=none;endFill=0;" edge="1" parent="1" source="ED0fjd736jUiSrUg1rBQ-4">
          <mxGeometry relative="1" as="geometry">
            <mxPoint x="145" y="310" as="targetPoint" />
          </mxGeometry>
        </mxCell>
        <mxCell id="ED0fjd736jUiSrUg1rBQ-4" value="User selects income category from navigation bar" style="rounded=1;whiteSpace=wrap;html=1;" vertex="1" parent="1">
          <mxGeometry x="85" y="190" width="120" height="60" as="geometry" />
        </mxCell>
        <mxCell id="xu3kG3i3IJEAR_XYQ0Yb-2" value="&lt;font style=&quot;font-size: 14px;&quot;&gt;&lt;b&gt;Income adding, managing, and viewing&lt;/b&gt;&lt;/font&gt;" style="text;html=1;align=center;verticalAlign=middle;whiteSpace=wrap;rounded=0;" vertex="1" parent="1">
          <mxGeometry x="290" y="10" width="270" height="30" as="geometry" />
        </mxCell>
        <mxCell id="ED0fjd736jUiSrUg1rBQ-17" style="edgeStyle=orthogonalEdgeStyle;rounded=0;orthogonalLoop=1;jettySize=auto;html=1;exitX=0.5;exitY=1;exitDx=0;exitDy=0;" edge="1" parent="1" source="ED0fjd736jUiSrUg1rBQ-10" target="ED0fjd736jUiSrUg1rBQ-16">
          <mxGeometry relative="1" as="geometry" />
        </mxCell>
        <mxCell id="ED0fjd736jUiSrUg1rBQ-10" value="View and Manage Income" style="rounded=1;whiteSpace=wrap;html=1;" vertex="1" parent="1">
          <mxGeometry x="170" y="390" width="80" height="50" as="geometry" />
        </mxCell>
        <mxCell id="ED0fjd736jUiSrUg1rBQ-11" value="Add Income Source" style="rounded=1;whiteSpace=wrap;html=1;" vertex="1" parent="1">
          <mxGeometry x="20" y="400" width="110" height="50" as="geometry" />
        </mxCell>
        <mxCell id="ED0fjd736jUiSrUg1rBQ-15" value="User is prompted to input amount, description and other necessary attributes for the income source" style="rounded=1;whiteSpace=wrap;html=1;" vertex="1" parent="1">
          <mxGeometry x="13.75" y="470" width="116.25" height="120" as="geometry" />
        </mxCell>
        <mxCell id="xu3kG3i3IJEAR_XYQ0Yb-12" style="edgeStyle=orthogonalEdgeStyle;rounded=0;orthogonalLoop=1;jettySize=auto;html=1;entryX=0.52;entryY=-0.007;entryDx=0;entryDy=0;entryPerimeter=0;" edge="1" parent="1" source="ED0fjd736jUiSrUg1rBQ-11" target="ED0fjd736jUiSrUg1rBQ-15">
          <mxGeometry relative="1" as="geometry" />
        </mxCell>
        <mxCell id="ED0fjd736jUiSrUg1rBQ-19" style="edgeStyle=orthogonalEdgeStyle;rounded=0;orthogonalLoop=1;jettySize=auto;html=1;exitX=1;exitY=0.5;exitDx=0;exitDy=0;" edge="1" parent="1" source="ED0fjd736jUiSrUg1rBQ-16" target="ED0fjd736jUiSrUg1rBQ-20">
          <mxGeometry relative="1" as="geometry">
            <mxPoint x="480" y="540" as="targetPoint" />
          </mxGeometry>
        </mxCell>
        <mxCell id="ED0fjd736jUiSrUg1rBQ-16" value="User is prompted to filter the income source by description and/or date range&amp;nbsp;" style="rounded=1;whiteSpace=wrap;html=1;" vertex="1" parent="1">
          <mxGeometry x="190" y="480" width="95" height="120" as="geometry" />
        </mxCell>
        <mxCell id="xu3kG3i3IJEAR_XYQ0Yb-6" value="" style="endArrow=classic;html=1;rounded=0;entryX=0.509;entryY=-0.048;entryDx=0;entryDy=0;entryPerimeter=0;exitX=0;exitY=0.5;exitDx=0;exitDy=0;" edge="1" parent="1" source="ao0WsNiyVyMfbBB7Z0Xo-4" target="ED0fjd736jUiSrUg1rBQ-11">
          <mxGeometry width="50" height="50" relative="1" as="geometry">
            <mxPoint x="90" y="310" as="sourcePoint" />
            <mxPoint x="210" y="340" as="targetPoint" />
          </mxGeometry>
        </mxCell>
        <mxCell id="xu3kG3i3IJEAR_XYQ0Yb-7" value="" style="endArrow=classic;html=1;rounded=0;entryX=0.5;entryY=0;entryDx=0;entryDy=0;exitX=1;exitY=0.5;exitDx=0;exitDy=0;" edge="1" parent="1" source="ao0WsNiyVyMfbBB7Z0Xo-4" target="ED0fjd736jUiSrUg1rBQ-10">
          <mxGeometry width="50" height="50" relative="1" as="geometry">
            <mxPoint x="210" y="310" as="sourcePoint" />
            <mxPoint x="210" y="340" as="targetPoint" />
          </mxGeometry>
        </mxCell>
        <mxCell id="ED0fjd736jUiSrUg1rBQ-25" style="edgeStyle=orthogonalEdgeStyle;rounded=0;orthogonalLoop=1;jettySize=auto;html=1;exitX=0.5;exitY=0;exitDx=0;exitDy=0;" edge="1" parent="1" source="ED0fjd736jUiSrUg1rBQ-20">
          <mxGeometry relative="1" as="geometry">
            <mxPoint x="480" y="410" as="targetPoint" />
          </mxGeometry>
        </mxCell>
        <mxCell id="ED0fjd736jUiSrUg1rBQ-20" value="User selects the income source they want to view/edit/remove" style="rounded=1;whiteSpace=wrap;html=1;" vertex="1" parent="1">
          <mxGeometry x="420" y="470" width="120" height="60" as="geometry" />
        </mxCell>
        <mxCell id="Xj4t4Ns8c-ywh5htOd37-4" style="rounded=0;orthogonalLoop=1;jettySize=auto;html=1;exitX=0.5;exitY=0;exitDx=0;exitDy=0;entryX=0;entryY=1;entryDx=0;entryDy=0;" edge="1" parent="1">
          <mxGeometry relative="1" as="geometry">
            <mxPoint x="365" y="295.74" as="sourcePoint" />
            <mxPoint x="437.4758182604969" y="90.00386885773484" as="targetPoint" />
          </mxGeometry>
        </mxCell>
        <mxCell id="ED0fjd736jUiSrUg1rBQ-27" value="User Exits" style="rounded=1;whiteSpace=wrap;html=1;" vertex="1" parent="1">
          <mxGeometry x="320" y="290" width="90" height="50" as="geometry" />
        </mxCell>
        <mxCell id="ED0fjd736jUiSrUg1rBQ-28" value="Once this is completed the user is now viewing the income souce" style="text;strokeColor=none;fillColor=none;align=left;verticalAlign=middle;spacingLeft=4;spacingRight=4;overflow=hidden;points=[[0,0.5],[1,0.5]];portConstraint=eastwest;rotatable=0;whiteSpace=wrap;html=1;" vertex="1" parent="1">
          <mxGeometry x="490" y="410" width="210" height="60" as="geometry" />
        </mxCell>
        <mxCell id="Xj4t4Ns8c-ywh5htOd37-3" style="edgeStyle=orthogonalEdgeStyle;rounded=0;orthogonalLoop=1;jettySize=auto;html=1;exitX=0.5;exitY=0;exitDx=0;exitDy=0;" edge="1" parent="1" source="ED0fjd736jUiSrUg1rBQ-29">
          <mxGeometry relative="1" as="geometry">
            <mxPoint x="480" y="230" as="targetPoint" />
          </mxGeometry>
        </mxCell>
        <mxCell id="ED0fjd736jUiSrUg1rBQ-29" value="Edit Income" style="rounded=1;whiteSpace=wrap;html=1;" vertex="1" parent="1">
          <mxGeometry x="430" y="292.5" width="100" height="45" as="geometry" />
        </mxCell>
        <mxCell id="Xj4t4Ns8c-ywh5htOd37-5" style="rounded=0;orthogonalLoop=1;jettySize=auto;html=1;exitX=0.5;exitY=0;exitDx=0;exitDy=0;" edge="1" parent="1" source="ED0fjd736jUiSrUg1rBQ-31" target="oJZsBpONgyCazDyMYBMr-1">
          <mxGeometry relative="1" as="geometry">
            <mxPoint x="600" y="230" as="targetPoint" />
          </mxGeometry>
        </mxCell>
        <mxCell id="ED0fjd736jUiSrUg1rBQ-31" value="Remove Income" style="rounded=1;whiteSpace=wrap;html=1;" vertex="1" parent="1">
          <mxGeometry x="550" y="292.5" width="100" height="45" as="geometry" />
        </mxCell>
        <mxCell id="ED0fjd736jUiSrUg1rBQ-36" value="" style="ellipse;whiteSpace=wrap;html=1;aspect=fixed;" vertex="1" parent="1">
          <mxGeometry x="427.5" y="42.5" width="55" height="55" as="geometry" />
        </mxCell>
        <mxCell id="ED0fjd736jUiSrUg1rBQ-33" value="" style="ellipse;whiteSpace=wrap;html=1;fillColor=#1ba1e2;fontColor=#ffffff;strokeColor=#006EAF;" vertex="1" parent="1">
          <mxGeometry x="430" y="50" width="50" height="40" as="geometry" />
        </mxCell>
        <mxCell id="ao0WsNiyVyMfbBB7Z0Xo-4" value="" style="rhombus;whiteSpace=wrap;html=1;" vertex="1" parent="1">
          <mxGeometry x="127.5" y="310" width="35" height="20" as="geometry" />
        </mxCell>
        <mxCell id="xu3kG3i3IJEAR_XYQ0Yb-16" style="edgeStyle=orthogonalEdgeStyle;rounded=0;orthogonalLoop=1;jettySize=auto;html=1;entryX=0.5;entryY=1;entryDx=0;entryDy=0;" edge="1" parent="1" source="xu3kG3i3IJEAR_XYQ0Yb-15" target="ED0fjd736jUiSrUg1rBQ-27">
          <mxGeometry relative="1" as="geometry" />
        </mxCell>
        <mxCell id="xu3kG3i3IJEAR_XYQ0Yb-17" style="edgeStyle=orthogonalEdgeStyle;rounded=0;orthogonalLoop=1;jettySize=auto;html=1;entryX=0.5;entryY=1;entryDx=0;entryDy=0;" edge="1" parent="1" source="xu3kG3i3IJEAR_XYQ0Yb-15" target="ED0fjd736jUiSrUg1rBQ-29">
          <mxGeometry relative="1" as="geometry" />
        </mxCell>
        <mxCell id="xu3kG3i3IJEAR_XYQ0Yb-18" style="edgeStyle=orthogonalEdgeStyle;rounded=0;orthogonalLoop=1;jettySize=auto;html=1;" edge="1" parent="1" source="xu3kG3i3IJEAR_XYQ0Yb-15" target="ED0fjd736jUiSrUg1rBQ-31">
          <mxGeometry relative="1" as="geometry">
            <mxPoint x="600" y="340" as="targetPoint" />
          </mxGeometry>
        </mxCell>
        <mxCell id="ED0fjd736jUiSrUg1rBQ-35" value="User Selects Add" style="text;strokeColor=none;fillColor=none;align=left;verticalAlign=middle;spacingLeft=4;spacingRight=4;overflow=hidden;points=[[0,0.5],[1,0.5]];portConstraint=eastwest;rotatable=0;whiteSpace=wrap;html=1;" vertex="1" parent="1">
          <mxGeometry x="13.75" y="337.5" width="80" height="30" as="geometry" />
        </mxCell>
        <mxCell id="xu3kG3i3IJEAR_XYQ0Yb-15" value="" style="rhombus;whiteSpace=wrap;html=1;" vertex="1" parent="1">
          <mxGeometry x="462.5" y="380" width="35" height="30" as="geometry" />
        </mxCell>
        <mxCell id="ED0fjd736jUiSrUg1rBQ-34" value="User Selects Manage" style="text;strokeColor=none;fillColor=none;align=left;verticalAlign=middle;spacingLeft=4;spacingRight=4;overflow=hidden;points=[[0,0.5],[1,0.5]];portConstraint=eastwest;rotatable=0;whiteSpace=wrap;html=1;" vertex="1" parent="1">
          <mxGeometry x="197.5" y="330" width="80" height="42.5" as="geometry" />
        </mxCell>
        <mxCell id="ED0fjd736jUiSrUg1rBQ-37" value="Selects Edit" style="text;strokeColor=none;fillColor=none;align=left;verticalAlign=middle;spacingLeft=4;spacingRight=4;overflow=hidden;points=[[0,0.5],[1,0.5]];portConstraint=eastwest;rotatable=0;whiteSpace=wrap;html=1;" vertex="1" parent="1">
          <mxGeometry x="490" y="350" width="80" height="30" as="geometry" />
        </mxCell>
        <mxCell id="Xj4t4Ns8c-ywh5htOd37-1" value="Selects Remove" style="text;html=1;strokeColor=none;fillColor=none;align=center;verticalAlign=middle;whiteSpace=wrap;rounded=0;" vertex="1" parent="1">
          <mxGeometry x="600" y="350" width="80" height="30" as="geometry" />
        </mxCell>
        <mxCell id="Xj4t4Ns8c-ywh5htOd37-2" value="Selects Exit" style="text;html=1;strokeColor=none;fillColor=none;align=center;verticalAlign=middle;whiteSpace=wrap;rounded=0;" vertex="1" parent="1">
          <mxGeometry x="300" y="362.5" width="57.5" height="27.5" as="geometry" />
        </mxCell>
        <mxCell id="Xj4t4Ns8c-ywh5htOd37-8" style="edgeStyle=orthogonalEdgeStyle;rounded=0;orthogonalLoop=1;jettySize=auto;html=1;exitX=0.5;exitY=0;exitDx=0;exitDy=0;entryX=0.5;entryY=1;entryDx=0;entryDy=0;" edge="1" parent="1" source="Xj4t4Ns8c-ywh5htOd37-6" target="Xj4t4Ns8c-ywh5htOd37-7">
          <mxGeometry relative="1" as="geometry" />
        </mxCell>
        <mxCell id="Xj4t4Ns8c-ywh5htOd37-6" value="Edit Menu Opens" style="rounded=1;whiteSpace=wrap;html=1;" vertex="1" parent="1">
          <mxGeometry x="437.5" y="200" width="90" height="40" as="geometry" />
        </mxCell>
        <mxCell id="Xj4t4Ns8c-ywh5htOd37-9" style="rounded=0;orthogonalLoop=1;jettySize=auto;html=1;exitX=0.5;exitY=0;exitDx=0;exitDy=0;entryX=0.72;entryY=1.05;entryDx=0;entryDy=0;entryPerimeter=0;" edge="1" parent="1" source="Xj4t4Ns8c-ywh5htOd37-7" target="ED0fjd736jUiSrUg1rBQ-33">
          <mxGeometry relative="1" as="geometry" />
        </mxCell>
        <mxCell id="Xj4t4Ns8c-ywh5htOd37-7" value="Changes Confirmed" style="rounded=1;whiteSpace=wrap;html=1;" vertex="1" parent="1">
          <mxGeometry x="437.5" y="130" width="85" height="37.5" as="geometry" />
        </mxCell>
        <mxCell id="Xj4t4Ns8c-ywh5htOd37-10" style="rounded=0;orthogonalLoop=1;jettySize=auto;html=1;exitX=0.25;exitY=0;exitDx=0;exitDy=0;entryX=1;entryY=0.5;entryDx=0;entryDy=0;" edge="1" parent="1" source="oJZsBpONgyCazDyMYBMr-1" target="ED0fjd736jUiSrUg1rBQ-33">
          <mxGeometry relative="1" as="geometry" />
        </mxCell>
        <mxCell id="oJZsBpONgyCazDyMYBMr-1" value="Income source deleted" style="rounded=1;whiteSpace=wrap;html=1;" vertex="1" parent="1">
          <mxGeometry x="590" y="130" width="90" height="50" as="geometry" />
        </mxCell>
      </root>
    </mxGraphModel>
  </diagram>
  <diagram id="U2v3xAyWPzztpuP19lTT" name="Expenses">
    <mxGraphModel grid="1" page="1" gridSize="10" guides="1" tooltips="1" connect="1" arrows="1" fold="1" pageScale="1" pageWidth="850" pageHeight="1100" math="0" shadow="0">
      <root>
        <mxCell id="0" />
        <mxCell id="1" parent="0" />
        <mxCell id="BUlF2NnVFyvlSJGqNc1D-1" style="rounded=0;orthogonalLoop=1;jettySize=auto;html=1;exitX=0.5;exitY=1;exitDx=0;exitDy=0;endArrow=none;endFill=0;" edge="1" parent="1" source="BUlF2NnVFyvlSJGqNc1D-2">
          <mxGeometry relative="1" as="geometry">
            <mxPoint x="145" y="200" as="targetPoint" />
          </mxGeometry>
        </mxCell>
        <mxCell id="BUlF2NnVFyvlSJGqNc1D-2" value="" style="ellipse;whiteSpace=wrap;html=1;fillColor=#1ba1e2;fontColor=#ffffff;strokeColor=#006EAF;" vertex="1" parent="1">
          <mxGeometry x="120" y="60" width="50" height="40" as="geometry" />
        </mxCell>
        <mxCell id="BUlF2NnVFyvlSJGqNc1D-3" value="It is assumed that the user is logged in and on the dashboard" style="text;html=1;strokeColor=none;fillColor=none;align=center;verticalAlign=middle;whiteSpace=wrap;rounded=0;" vertex="1" parent="1">
          <mxGeometry x="20" y="20" width="250" height="40" as="geometry" />
        </mxCell>
        <mxCell id="BUlF2NnVFyvlSJGqNc1D-4" style="edgeStyle=orthogonalEdgeStyle;rounded=0;orthogonalLoop=1;jettySize=auto;html=1;exitX=0.5;exitY=1;exitDx=0;exitDy=0;endArrow=none;endFill=0;" edge="1" parent="1" source="BUlF2NnVFyvlSJGqNc1D-5">
          <mxGeometry relative="1" as="geometry">
            <mxPoint x="145" y="310" as="targetPoint" />
          </mxGeometry>
        </mxCell>
        <mxCell id="BUlF2NnVFyvlSJGqNc1D-5" value="User selects Expense category from navigation bar" style="rounded=1;whiteSpace=wrap;html=1;" vertex="1" parent="1">
          <mxGeometry x="85" y="190" width="120" height="60" as="geometry" />
        </mxCell>
        <mxCell id="BUlF2NnVFyvlSJGqNc1D-6" value="&lt;font style=&quot;font-size: 14px;&quot;&gt;&lt;b&gt;Expenses adding, managing, and viewing&lt;/b&gt;&lt;/font&gt;" style="text;html=1;align=center;verticalAlign=middle;whiteSpace=wrap;rounded=0;" vertex="1" parent="1">
          <mxGeometry x="290" y="10" width="270" height="30" as="geometry" />
        </mxCell>
        <mxCell id="BUlF2NnVFyvlSJGqNc1D-7" style="edgeStyle=orthogonalEdgeStyle;rounded=0;orthogonalLoop=1;jettySize=auto;html=1;exitX=0.5;exitY=1;exitDx=0;exitDy=0;" edge="1" parent="1" source="BUlF2NnVFyvlSJGqNc1D-8" target="BUlF2NnVFyvlSJGqNc1D-13">
          <mxGeometry relative="1" as="geometry" />
        </mxCell>
        <mxCell id="BUlF2NnVFyvlSJGqNc1D-8" value="View and Manage Expense" style="rounded=1;whiteSpace=wrap;html=1;" vertex="1" parent="1">
          <mxGeometry x="170" y="390" width="80" height="50" as="geometry" />
        </mxCell>
        <mxCell id="BUlF2NnVFyvlSJGqNc1D-9" value="Add Expense Source" style="rounded=1;whiteSpace=wrap;html=1;" vertex="1" parent="1">
          <mxGeometry x="20" y="400" width="110" height="50" as="geometry" />
        </mxCell>
        <mxCell id="BUlF2NnVFyvlSJGqNc1D-10" value="User is prompted to input amount, description and other necessary attributes for the expense source" style="rounded=1;whiteSpace=wrap;html=1;" vertex="1" parent="1">
          <mxGeometry x="13.75" y="470" width="116.25" height="120" as="geometry" />
        </mxCell>
        <mxCell id="BUlF2NnVFyvlSJGqNc1D-11" style="edgeStyle=orthogonalEdgeStyle;rounded=0;orthogonalLoop=1;jettySize=auto;html=1;entryX=0.52;entryY=-0.007;entryDx=0;entryDy=0;entryPerimeter=0;" edge="1" parent="1" source="BUlF2NnVFyvlSJGqNc1D-9" target="BUlF2NnVFyvlSJGqNc1D-10">
          <mxGeometry relative="1" as="geometry" />
        </mxCell>
        <mxCell id="BUlF2NnVFyvlSJGqNc1D-12" style="edgeStyle=orthogonalEdgeStyle;rounded=0;orthogonalLoop=1;jettySize=auto;html=1;exitX=1;exitY=0.5;exitDx=0;exitDy=0;" edge="1" parent="1" source="BUlF2NnVFyvlSJGqNc1D-13" target="BUlF2NnVFyvlSJGqNc1D-17">
          <mxGeometry relative="1" as="geometry">
            <mxPoint x="480" y="540" as="targetPoint" />
          </mxGeometry>
        </mxCell>
        <mxCell id="BUlF2NnVFyvlSJGqNc1D-13" value="User is prompted to filter the expense source by description and/or date range&amp;nbsp;" style="rounded=1;whiteSpace=wrap;html=1;" vertex="1" parent="1">
          <mxGeometry x="190" y="480" width="95" height="120" as="geometry" />
        </mxCell>
        <mxCell id="BUlF2NnVFyvlSJGqNc1D-14" value="" style="endArrow=classic;html=1;rounded=0;entryX=0.509;entryY=-0.048;entryDx=0;entryDy=0;entryPerimeter=0;exitX=0;exitY=0.5;exitDx=0;exitDy=0;" edge="1" parent="1" source="BUlF2NnVFyvlSJGqNc1D-27" target="BUlF2NnVFyvlSJGqNc1D-9">
          <mxGeometry width="50" height="50" relative="1" as="geometry">
            <mxPoint x="90" y="310" as="sourcePoint" />
            <mxPoint x="210" y="340" as="targetPoint" />
          </mxGeometry>
        </mxCell>
        <mxCell id="BUlF2NnVFyvlSJGqNc1D-15" value="" style="endArrow=classic;html=1;rounded=0;entryX=0.5;entryY=0;entryDx=0;entryDy=0;exitX=1;exitY=0.5;exitDx=0;exitDy=0;" edge="1" parent="1" source="BUlF2NnVFyvlSJGqNc1D-27" target="BUlF2NnVFyvlSJGqNc1D-8">
          <mxGeometry width="50" height="50" relative="1" as="geometry">
            <mxPoint x="210" y="310" as="sourcePoint" />
            <mxPoint x="210" y="340" as="targetPoint" />
          </mxGeometry>
        </mxCell>
        <mxCell id="BUlF2NnVFyvlSJGqNc1D-16" style="edgeStyle=orthogonalEdgeStyle;rounded=0;orthogonalLoop=1;jettySize=auto;html=1;exitX=0.5;exitY=0;exitDx=0;exitDy=0;" edge="1" parent="1" source="BUlF2NnVFyvlSJGqNc1D-17">
          <mxGeometry relative="1" as="geometry">
            <mxPoint x="480" y="410" as="targetPoint" />
          </mxGeometry>
        </mxCell>
        <mxCell id="BUlF2NnVFyvlSJGqNc1D-17" value="User selects the expense source they want to view/edit/remove" style="rounded=1;whiteSpace=wrap;html=1;" vertex="1" parent="1">
          <mxGeometry x="420" y="470" width="120" height="60" as="geometry" />
        </mxCell>
        <mxCell id="BUlF2NnVFyvlSJGqNc1D-18" style="rounded=0;orthogonalLoop=1;jettySize=auto;html=1;exitX=0.5;exitY=0;exitDx=0;exitDy=0;entryX=0;entryY=1;entryDx=0;entryDy=0;" edge="1" parent="1">
          <mxGeometry relative="1" as="geometry">
            <mxPoint x="365" y="295.74" as="sourcePoint" />
            <mxPoint x="437.4758182604969" y="90.00386885773484" as="targetPoint" />
          </mxGeometry>
        </mxCell>
        <mxCell id="BUlF2NnVFyvlSJGqNc1D-19" value="User Exits" style="rounded=1;whiteSpace=wrap;html=1;" vertex="1" parent="1">
          <mxGeometry x="320" y="290" width="90" height="50" as="geometry" />
        </mxCell>
        <mxCell id="BUlF2NnVFyvlSJGqNc1D-20" value="Once this is completed the user is now viewing the expense source" style="text;strokeColor=none;fillColor=none;align=left;verticalAlign=middle;spacingLeft=4;spacingRight=4;overflow=hidden;points=[[0,0.5],[1,0.5]];portConstraint=eastwest;rotatable=0;whiteSpace=wrap;html=1;" vertex="1" parent="1">
          <mxGeometry x="490" y="410" width="210" height="60" as="geometry" />
        </mxCell>
        <mxCell id="BUlF2NnVFyvlSJGqNc1D-21" style="edgeStyle=orthogonalEdgeStyle;rounded=0;orthogonalLoop=1;jettySize=auto;html=1;exitX=0.5;exitY=0;exitDx=0;exitDy=0;" edge="1" parent="1" source="BUlF2NnVFyvlSJGqNc1D-22">
          <mxGeometry relative="1" as="geometry">
            <mxPoint x="480" y="230" as="targetPoint" />
          </mxGeometry>
        </mxCell>
        <mxCell id="BUlF2NnVFyvlSJGqNc1D-22" value="Edit Expense" style="rounded=1;whiteSpace=wrap;html=1;" vertex="1" parent="1">
          <mxGeometry x="430" y="292.5" width="100" height="45" as="geometry" />
        </mxCell>
        <mxCell id="BUlF2NnVFyvlSJGqNc1D-23" style="rounded=0;orthogonalLoop=1;jettySize=auto;html=1;exitX=0.5;exitY=0;exitDx=0;exitDy=0;" edge="1" parent="1" source="BUlF2NnVFyvlSJGqNc1D-24" target="BUlF2NnVFyvlSJGqNc1D-42">
          <mxGeometry relative="1" as="geometry">
            <mxPoint x="600" y="230" as="targetPoint" />
          </mxGeometry>
        </mxCell>
        <mxCell id="BUlF2NnVFyvlSJGqNc1D-24" value="Remove Expense" style="rounded=1;whiteSpace=wrap;html=1;" vertex="1" parent="1">
          <mxGeometry x="550" y="292.5" width="100" height="45" as="geometry" />
        </mxCell>
        <mxCell id="BUlF2NnVFyvlSJGqNc1D-25" value="" style="ellipse;whiteSpace=wrap;html=1;aspect=fixed;" vertex="1" parent="1">
          <mxGeometry x="427.5" y="42.5" width="55" height="55" as="geometry" />
        </mxCell>
        <mxCell id="BUlF2NnVFyvlSJGqNc1D-26" value="" style="ellipse;whiteSpace=wrap;html=1;fillColor=#1ba1e2;fontColor=#ffffff;strokeColor=#006EAF;" vertex="1" parent="1">
          <mxGeometry x="430" y="50" width="50" height="40" as="geometry" />
        </mxCell>
        <mxCell id="BUlF2NnVFyvlSJGqNc1D-27" value="" style="rhombus;whiteSpace=wrap;html=1;" vertex="1" parent="1">
          <mxGeometry x="127.5" y="310" width="35" height="20" as="geometry" />
        </mxCell>
        <mxCell id="BUlF2NnVFyvlSJGqNc1D-28" style="edgeStyle=orthogonalEdgeStyle;rounded=0;orthogonalLoop=1;jettySize=auto;html=1;entryX=0.5;entryY=1;entryDx=0;entryDy=0;" edge="1" parent="1" source="BUlF2NnVFyvlSJGqNc1D-32" target="BUlF2NnVFyvlSJGqNc1D-19">
          <mxGeometry relative="1" as="geometry" />
        </mxCell>
        <mxCell id="BUlF2NnVFyvlSJGqNc1D-29" style="edgeStyle=orthogonalEdgeStyle;rounded=0;orthogonalLoop=1;jettySize=auto;html=1;entryX=0.5;entryY=1;entryDx=0;entryDy=0;" edge="1" parent="1" source="BUlF2NnVFyvlSJGqNc1D-32" target="BUlF2NnVFyvlSJGqNc1D-22">
          <mxGeometry relative="1" as="geometry" />
        </mxCell>
        <mxCell id="BUlF2NnVFyvlSJGqNc1D-30" style="edgeStyle=orthogonalEdgeStyle;rounded=0;orthogonalLoop=1;jettySize=auto;html=1;" edge="1" parent="1" source="BUlF2NnVFyvlSJGqNc1D-32" target="BUlF2NnVFyvlSJGqNc1D-24">
          <mxGeometry relative="1" as="geometry">
            <mxPoint x="600" y="340" as="targetPoint" />
          </mxGeometry>
        </mxCell>
        <mxCell id="BUlF2NnVFyvlSJGqNc1D-31" value="User Selects Add" style="text;strokeColor=none;fillColor=none;align=left;verticalAlign=middle;spacingLeft=4;spacingRight=4;overflow=hidden;points=[[0,0.5],[1,0.5]];portConstraint=eastwest;rotatable=0;whiteSpace=wrap;html=1;" vertex="1" parent="1">
          <mxGeometry x="13.75" y="337.5" width="80" height="30" as="geometry" />
        </mxCell>
        <mxCell id="BUlF2NnVFyvlSJGqNc1D-32" value="" style="rhombus;whiteSpace=wrap;html=1;" vertex="1" parent="1">
          <mxGeometry x="462.5" y="380" width="35" height="30" as="geometry" />
        </mxCell>
        <mxCell id="BUlF2NnVFyvlSJGqNc1D-33" value="User Selects Manage" style="text;strokeColor=none;fillColor=none;align=left;verticalAlign=middle;spacingLeft=4;spacingRight=4;overflow=hidden;points=[[0,0.5],[1,0.5]];portConstraint=eastwest;rotatable=0;whiteSpace=wrap;html=1;" vertex="1" parent="1">
          <mxGeometry x="197.5" y="330" width="80" height="42.5" as="geometry" />
        </mxCell>
        <mxCell id="BUlF2NnVFyvlSJGqNc1D-34" value="Selects Edit" style="text;strokeColor=none;fillColor=none;align=left;verticalAlign=middle;spacingLeft=4;spacingRight=4;overflow=hidden;points=[[0,0.5],[1,0.5]];portConstraint=eastwest;rotatable=0;whiteSpace=wrap;html=1;" vertex="1" parent="1">
          <mxGeometry x="490" y="350" width="80" height="30" as="geometry" />
        </mxCell>
        <mxCell id="BUlF2NnVFyvlSJGqNc1D-35" value="Selects Remove" style="text;html=1;strokeColor=none;fillColor=none;align=center;verticalAlign=middle;whiteSpace=wrap;rounded=0;" vertex="1" parent="1">
          <mxGeometry x="600" y="350" width="80" height="30" as="geometry" />
        </mxCell>
        <mxCell id="BUlF2NnVFyvlSJGqNc1D-36" value="Selects Exit" style="text;html=1;strokeColor=none;fillColor=none;align=center;verticalAlign=middle;whiteSpace=wrap;rounded=0;" vertex="1" parent="1">
          <mxGeometry x="300" y="362.5" width="57.5" height="27.5" as="geometry" />
        </mxCell>
        <mxCell id="BUlF2NnVFyvlSJGqNc1D-37" style="edgeStyle=orthogonalEdgeStyle;rounded=0;orthogonalLoop=1;jettySize=auto;html=1;exitX=0.5;exitY=0;exitDx=0;exitDy=0;entryX=0.5;entryY=1;entryDx=0;entryDy=0;" edge="1" parent="1" source="BUlF2NnVFyvlSJGqNc1D-38" target="BUlF2NnVFyvlSJGqNc1D-40">
          <mxGeometry relative="1" as="geometry" />
        </mxCell>
        <mxCell id="BUlF2NnVFyvlSJGqNc1D-38" value="Edit Menu Opens" style="rounded=1;whiteSpace=wrap;html=1;" vertex="1" parent="1">
          <mxGeometry x="437.5" y="200" width="90" height="40" as="geometry" />
        </mxCell>
        <mxCell id="BUlF2NnVFyvlSJGqNc1D-39" style="rounded=0;orthogonalLoop=1;jettySize=auto;html=1;exitX=0.5;exitY=0;exitDx=0;exitDy=0;entryX=0.72;entryY=1.05;entryDx=0;entryDy=0;entryPerimeter=0;" edge="1" parent="1" source="BUlF2NnVFyvlSJGqNc1D-40" target="BUlF2NnVFyvlSJGqNc1D-26">
          <mxGeometry relative="1" as="geometry" />
        </mxCell>
        <mxCell id="BUlF2NnVFyvlSJGqNc1D-40" value="Changes Confirmed" style="rounded=1;whiteSpace=wrap;html=1;" vertex="1" parent="1">
          <mxGeometry x="437.5" y="130" width="85" height="37.5" as="geometry" />
        </mxCell>
        <mxCell id="BUlF2NnVFyvlSJGqNc1D-41" style="rounded=0;orthogonalLoop=1;jettySize=auto;html=1;exitX=0.25;exitY=0;exitDx=0;exitDy=0;entryX=1;entryY=0.5;entryDx=0;entryDy=0;" edge="1" parent="1" source="BUlF2NnVFyvlSJGqNc1D-42" target="BUlF2NnVFyvlSJGqNc1D-26">
          <mxGeometry relative="1" as="geometry" />
        </mxCell>
        <mxCell id="BUlF2NnVFyvlSJGqNc1D-42" value="Expense&lt;span style=&quot;background-color: transparent; color: light-dark(rgb(0, 0, 0), rgb(255, 255, 255));&quot;&gt;&amp;nbsp;source deleted&lt;/span&gt;" style="rounded=1;whiteSpace=wrap;html=1;" vertex="1" parent="1">
          <mxGeometry x="590" y="130" width="90" height="50" as="geometry" />
        </mxCell>
      </root>
    </mxGraphModel>
  </diagram>
  <diagram id="3OGGPXxWmSmjjkl29hBd" name="Rough Process Diagrams">
    <mxGraphModel grid="1" page="1" gridSize="10" guides="1" tooltips="1" connect="1" arrows="1" fold="1" pageScale="1" pageWidth="850" pageHeight="1100" math="0" shadow="0">
      <root>
        <mxCell id="0" />
        <mxCell id="1" parent="0" />
        <mxCell id="K0H9aB_9Kj8i3Ax1ZyKw-1" value="Options" style="text;html=1;align=center;verticalAlign=middle;resizable=0;points=[];autosize=1;strokeColor=none;fillColor=none;" vertex="1" parent="1">
          <mxGeometry x="200" y="160" width="60" height="30" as="geometry" />
        </mxCell>
        <mxCell id="K0H9aB_9Kj8i3Ax1ZyKw-2" value="Options" style="text;html=1;align=center;verticalAlign=middle;resizable=0;points=[];autosize=1;strokeColor=none;fillColor=none;" vertex="1" parent="1">
          <mxGeometry x="640" y="290" width="60" height="30" as="geometry" />
        </mxCell>
        <mxCell id="CLk8GI1KrgcqELkTqXGd-1" value="Expenses" style="ellipse;whiteSpace=wrap;html=1;" vertex="1" parent="1">
          <mxGeometry x="660.25" y="345" width="69.75" height="30" as="geometry" />
        </mxCell>
        <mxCell id="9kuOMTfxt9Iu0S0GJ2xO-5" style="edgeStyle=orthogonalEdgeStyle;rounded=0;orthogonalLoop=1;jettySize=auto;html=1;entryX=0.5;entryY=0;entryDx=0;entryDy=0;" edge="1" parent="1" source="CLk8GI1KrgcqELkTqXGd-2" target="J75yrZBXkFzWCFMRQMb1-5">
          <mxGeometry relative="1" as="geometry" />
        </mxCell>
        <mxCell id="CLk8GI1KrgcqELkTqXGd-2" value="Income" style="ellipse;whiteSpace=wrap;html=1;" vertex="1" parent="1">
          <mxGeometry x="560" y="345" width="69.75" height="30" as="geometry" />
        </mxCell>
        <mxCell id="eysZ0HGl5kztT6KN08XB-1" value="" style="ellipse;whiteSpace=wrap;html=1;fillColor=#1ba1e2;fontColor=#ffffff;strokeColor=#006EAF;" vertex="1" parent="1">
          <mxGeometry x="116.25" y="100" width="40" height="40" as="geometry" />
        </mxCell>
        <mxCell id="eysZ0HGl5kztT6KN08XB-2" value="User Start" style="text;html=1;align=center;verticalAlign=middle;resizable=0;points=[];autosize=1;strokeColor=none;fillColor=none;" vertex="1" parent="1">
          <mxGeometry x="100" y="70" width="80" height="30" as="geometry" />
        </mxCell>
        <mxCell id="eysZ0HGl5kztT6KN08XB-3" style="edgeStyle=orthogonalEdgeStyle;rounded=0;orthogonalLoop=1;jettySize=auto;html=1;entryX=0;entryY=0.5;entryDx=0;entryDy=0;" edge="1" parent="1" source="eysZ0HGl5kztT6KN08XB-4" target="eysZ0HGl5kztT6KN08XB-9">
          <mxGeometry relative="1" as="geometry" />
        </mxCell>
        <mxCell id="eysZ0HGl5kztT6KN08XB-4" value="Landing page" style="rounded=1;whiteSpace=wrap;html=1;" vertex="1" parent="1">
          <mxGeometry x="90" y="170" width="100" height="30" as="geometry" />
        </mxCell>
        <mxCell id="eysZ0HGl5kztT6KN08XB-5" style="edgeStyle=orthogonalEdgeStyle;rounded=0;orthogonalLoop=1;jettySize=auto;html=1;entryX=0.465;entryY=-0.069;entryDx=0;entryDy=0;entryPerimeter=0;" edge="1" parent="1" source="eysZ0HGl5kztT6KN08XB-1" target="eysZ0HGl5kztT6KN08XB-4">
          <mxGeometry relative="1" as="geometry" />
        </mxCell>
        <mxCell id="eysZ0HGl5kztT6KN08XB-6" style="edgeStyle=orthogonalEdgeStyle;rounded=0;orthogonalLoop=1;jettySize=auto;html=1;entryX=0;entryY=0.5;entryDx=0;entryDy=0;" edge="1" parent="1" source="eysZ0HGl5kztT6KN08XB-7" target="eysZ0HGl5kztT6KN08XB-12">
          <mxGeometry relative="1" as="geometry" />
        </mxCell>
        <mxCell id="eysZ0HGl5kztT6KN08XB-7" value="Sign-In" style="ellipse;whiteSpace=wrap;html=1;" vertex="1" parent="1">
          <mxGeometry x="341.25" y="150" width="54" height="30" as="geometry" />
        </mxCell>
        <mxCell id="eysZ0HGl5kztT6KN08XB-8" style="edgeStyle=orthogonalEdgeStyle;rounded=0;orthogonalLoop=1;jettySize=auto;html=1;entryX=0;entryY=0.5;entryDx=0;entryDy=0;" edge="1" parent="1" source="eysZ0HGl5kztT6KN08XB-9" target="eysZ0HGl5kztT6KN08XB-14">
          <mxGeometry relative="1" as="geometry" />
        </mxCell>
        <mxCell id="eysZ0HGl5kztT6KN08XB-9" value="Sign-up" style="ellipse;whiteSpace=wrap;html=1;" vertex="1" parent="1">
          <mxGeometry x="341.25" y="190" width="54" height="30" as="geometry" />
        </mxCell>
        <mxCell id="eysZ0HGl5kztT6KN08XB-10" style="edgeStyle=orthogonalEdgeStyle;rounded=0;orthogonalLoop=1;jettySize=auto;html=1;entryX=0.007;entryY=0.5;entryDx=0;entryDy=0;entryPerimeter=0;" edge="1" parent="1" source="eysZ0HGl5kztT6KN08XB-4" target="eysZ0HGl5kztT6KN08XB-7">
          <mxGeometry relative="1" as="geometry" />
        </mxCell>
        <mxCell id="eysZ0HGl5kztT6KN08XB-11" style="edgeStyle=orthogonalEdgeStyle;rounded=0;orthogonalLoop=1;jettySize=auto;html=1;entryX=0.5;entryY=1;entryDx=0;entryDy=0;exitX=0.5;exitY=0;exitDx=0;exitDy=0;" edge="1" parent="1" source="eysZ0HGl5kztT6KN08XB-12" target="eysZ0HGl5kztT6KN08XB-18">
          <mxGeometry relative="1" as="geometry">
            <Array as="points">
              <mxPoint x="452.25" y="130" />
              <mxPoint x="533.25" y="130" />
            </Array>
          </mxGeometry>
        </mxCell>
        <mxCell id="eysZ0HGl5kztT6KN08XB-12" value="Form" style="rounded=1;whiteSpace=wrap;html=1;" vertex="1" parent="1">
          <mxGeometry x="430" y="150" width="44" height="30" as="geometry" />
        </mxCell>
        <mxCell id="eysZ0HGl5kztT6KN08XB-13" style="edgeStyle=orthogonalEdgeStyle;rounded=0;orthogonalLoop=1;jettySize=auto;html=1;entryX=0;entryY=0.5;entryDx=0;entryDy=0;" edge="1" parent="1" source="eysZ0HGl5kztT6KN08XB-14" target="eysZ0HGl5kztT6KN08XB-16">
          <mxGeometry relative="1" as="geometry" />
        </mxCell>
        <mxCell id="eysZ0HGl5kztT6KN08XB-14" value="Form" style="rounded=1;whiteSpace=wrap;html=1;" vertex="1" parent="1">
          <mxGeometry x="430" y="190" width="44" height="30" as="geometry" />
        </mxCell>
        <mxCell id="eysZ0HGl5kztT6KN08XB-15" style="edgeStyle=orthogonalEdgeStyle;rounded=0;orthogonalLoop=1;jettySize=auto;html=1;entryX=0.5;entryY=0;entryDx=0;entryDy=0;" edge="1" parent="1" source="eysZ0HGl5kztT6KN08XB-16" target="eysZ0HGl5kztT6KN08XB-22">
          <mxGeometry relative="1" as="geometry" />
        </mxCell>
        <mxCell id="eysZ0HGl5kztT6KN08XB-16" value="Add add email/ password/ retype/ personal info, etc." style="rounded=1;whiteSpace=wrap;html=1;" vertex="1" parent="1">
          <mxGeometry x="580.25" y="177.5" width="130" height="55" as="geometry" />
        </mxCell>
        <mxCell id="eysZ0HGl5kztT6KN08XB-17" style="edgeStyle=orthogonalEdgeStyle;rounded=0;orthogonalLoop=1;jettySize=auto;html=1;entryX=1;entryY=0.5;entryDx=0;entryDy=0;" edge="1" parent="1" source="eysZ0HGl5kztT6KN08XB-18" target="eysZ0HGl5kztT6KN08XB-22">
          <mxGeometry relative="1" as="geometry">
            <Array as="points">
              <mxPoint x="726.25" y="85" />
              <mxPoint x="726.25" y="275" />
            </Array>
          </mxGeometry>
        </mxCell>
        <mxCell id="eysZ0HGl5kztT6KN08XB-18" value="Prompt email/ password" style="rounded=1;whiteSpace=wrap;html=1;" vertex="1" parent="1">
          <mxGeometry x="486.25" y="70" width="94" height="30" as="geometry" />
        </mxCell>
        <mxCell id="eysZ0HGl5kztT6KN08XB-19" style="edgeStyle=orthogonalEdgeStyle;rounded=0;orthogonalLoop=1;jettySize=auto;html=1;entryX=1;entryY=0.25;entryDx=0;entryDy=0;exitX=0.5;exitY=0;exitDx=0;exitDy=0;" edge="1" parent="1" source="eysZ0HGl5kztT6KN08XB-20" target="eysZ0HGl5kztT6KN08XB-14">
          <mxGeometry relative="1" as="geometry">
            <Array as="points">
              <mxPoint x="396.25" y="60" />
              <mxPoint x="396.25" y="40" />
              <mxPoint x="596.25" y="40" />
              <mxPoint x="596.25" y="160" />
              <mxPoint x="496.25" y="160" />
              <mxPoint x="496.25" y="198" />
            </Array>
          </mxGeometry>
        </mxCell>
        <mxCell id="eysZ0HGl5kztT6KN08XB-20" value="Forgot passowrd/ dont have an account? --&amp;gt; create account" style="rounded=1;whiteSpace=wrap;html=1;" vertex="1" parent="1">
          <mxGeometry x="321.75" y="60" width="152.25" height="50" as="geometry" />
        </mxCell>
        <mxCell id="eysZ0HGl5kztT6KN08XB-21" style="edgeStyle=orthogonalEdgeStyle;rounded=0;orthogonalLoop=1;jettySize=auto;html=1;entryX=0.566;entryY=1.054;entryDx=0;entryDy=0;entryPerimeter=0;" edge="1" parent="1" source="eysZ0HGl5kztT6KN08XB-12" target="eysZ0HGl5kztT6KN08XB-20">
          <mxGeometry relative="1" as="geometry" />
        </mxCell>
        <mxCell id="eysZ0HGl5kztT6KN08XB-23" style="edgeStyle=orthogonalEdgeStyle;rounded=0;orthogonalLoop=1;jettySize=auto;html=1;entryX=0.5;entryY=0;entryDx=0;entryDy=0;" edge="1" parent="1" source="eysZ0HGl5kztT6KN08XB-22" target="CLk8GI1KrgcqELkTqXGd-2">
          <mxGeometry relative="1" as="geometry" />
        </mxCell>
        <mxCell id="9kuOMTfxt9Iu0S0GJ2xO-8" style="edgeStyle=orthogonalEdgeStyle;rounded=0;orthogonalLoop=1;jettySize=auto;html=1;entryX=1;entryY=0.5;entryDx=0;entryDy=0;" edge="1" parent="1" source="eysZ0HGl5kztT6KN08XB-22" target="9kuOMTfxt9Iu0S0GJ2xO-7">
          <mxGeometry relative="1" as="geometry" />
        </mxCell>
        <mxCell id="eysZ0HGl5kztT6KN08XB-22" value="Dashboard page" style="rounded=1;whiteSpace=wrap;html=1;" vertex="1" parent="1">
          <mxGeometry x="595.25" y="260" width="100" height="30" as="geometry" />
        </mxCell>
        <mxCell id="eysZ0HGl5kztT6KN08XB-24" style="edgeStyle=orthogonalEdgeStyle;rounded=0;orthogonalLoop=1;jettySize=auto;html=1;entryX=0.458;entryY=0.045;entryDx=0;entryDy=0;entryPerimeter=0;" edge="1" parent="1" source="eysZ0HGl5kztT6KN08XB-22" target="CLk8GI1KrgcqELkTqXGd-1">
          <mxGeometry relative="1" as="geometry" />
        </mxCell>
        <mxCell id="eysZ0HGl5kztT6KN08XB-25" value="Similar to the &lt;br&gt;income option" style="text;html=1;align=center;verticalAlign=middle;resizable=0;points=[];autosize=1;strokeColor=none;fillColor=none;" vertex="1" parent="1">
          <mxGeometry x="760" y="340" width="100" height="40" as="geometry" />
        </mxCell>
        <mxCell id="eysZ0HGl5kztT6KN08XB-26" style="edgeStyle=orthogonalEdgeStyle;rounded=0;orthogonalLoop=1;jettySize=auto;html=1;entryX=0;entryY=0.5;entryDx=0;entryDy=0;entryPerimeter=0;" edge="1" parent="1" source="CLk8GI1KrgcqELkTqXGd-1" target="eysZ0HGl5kztT6KN08XB-25">
          <mxGeometry relative="1" as="geometry" />
        </mxCell>
        <mxCell id="vlv6HzGZ7EN_tCv1F9UA-4" value="User is prompted to input amount, description and other necessary attributes for the income source" style="rounded=1;whiteSpace=wrap;html=1;" vertex="1" parent="1">
          <mxGeometry x="80" y="615" width="116.25" height="120" as="geometry" />
        </mxCell>
        <mxCell id="J75yrZBXkFzWCFMRQMb1-2" value="" style="rounded=0;whiteSpace=wrap;html=1;" vertex="1" parent="1">
          <mxGeometry x="80" y="405" width="330" height="190" as="geometry" />
        </mxCell>
        <mxCell id="J75yrZBXkFzWCFMRQMb1-4" value="Income metric 1" style="rounded=0;whiteSpace=wrap;html=1;" vertex="1" parent="1">
          <mxGeometry x="269.75" y="405" width="90.25" height="30" as="geometry" />
        </mxCell>
        <mxCell id="J75yrZBXkFzWCFMRQMb1-5" value="Income metric 2" style="rounded=0;whiteSpace=wrap;html=1;" vertex="1" parent="1">
          <mxGeometry x="179.75" y="405" width="90" height="30" as="geometry" />
        </mxCell>
        <mxCell id="J75yrZBXkFzWCFMRQMb1-6" value="App logo" style="rounded=0;whiteSpace=wrap;html=1;" vertex="1" parent="1">
          <mxGeometry x="109.75" y="405" width="70" height="30" as="geometry" />
        </mxCell>
        <mxCell id="J75yrZBXkFzWCFMRQMb1-7" value="Options icon" style="rounded=0;whiteSpace=wrap;html=1;" vertex="1" parent="1">
          <mxGeometry x="360" y="405" width="50" height="30" as="geometry" />
        </mxCell>
        <mxCell id="J75yrZBXkFzWCFMRQMb1-8" value="" style="rounded=0;whiteSpace=wrap;html=1;" vertex="1" parent="1">
          <mxGeometry x="90" y="445" width="310" height="100" as="geometry" />
        </mxCell>
        <mxCell id="J75yrZBXkFzWCFMRQMb1-9" value="Income Rows" style="rounded=0;whiteSpace=wrap;html=1;" vertex="1" parent="1">
          <mxGeometry x="90" y="445" width="310" height="20" as="geometry" />
        </mxCell>
        <mxCell id="J75yrZBXkFzWCFMRQMb1-10" value="Filter" style="rounded=0;whiteSpace=wrap;html=1;" vertex="1" parent="1">
          <mxGeometry x="90" y="465" width="50" height="10" as="geometry" />
        </mxCell>
        <mxCell id="J75yrZBXkFzWCFMRQMb1-14" value="Sort by" style="rounded=0;whiteSpace=wrap;html=1;" vertex="1" parent="1">
          <mxGeometry x="140" y="465" width="50" height="10" as="geometry" />
        </mxCell>
        <mxCell id="J75yrZBXkFzWCFMRQMb1-15" value="ID&lt;span style=&quot;white-space: pre;&quot;&gt;&#x9;&lt;/span&gt; &lt;span style=&quot;white-space: pre;&quot;&gt;&#x9;&lt;/span&gt;Date &lt;span style=&quot;white-space: pre;&quot;&gt;&#x9;&lt;/span&gt;&lt;span style=&quot;white-space: pre;&quot;&gt;&#x9;&lt;/span&gt;Title&lt;span style=&quot;white-space: pre;&quot;&gt;&#x9;&lt;/span&gt; &lt;span style=&quot;white-space: pre;&quot;&gt;&#x9;&lt;/span&gt;&lt;span style=&quot;white-space: pre;&quot;&gt;&#x9;&lt;/span&gt;Amount&amp;nbsp;" style="rounded=0;whiteSpace=wrap;html=1;" vertex="1" parent="1">
          <mxGeometry x="90" y="485" width="310" height="10" as="geometry" />
        </mxCell>
        <mxCell id="J75yrZBXkFzWCFMRQMb1-27" style="edgeStyle=orthogonalEdgeStyle;rounded=0;orthogonalLoop=1;jettySize=auto;html=1;" edge="1" parent="1" source="J75yrZBXkFzWCFMRQMb1-16">
          <mxGeometry relative="1" as="geometry">
            <mxPoint x="480" y="500" as="targetPoint" />
          </mxGeometry>
        </mxCell>
        <mxCell id="J75yrZBXkFzWCFMRQMb1-16" value="" style="rounded=0;whiteSpace=wrap;html=1;" vertex="1" parent="1">
          <mxGeometry x="90" y="495" width="310" height="10" as="geometry" />
        </mxCell>
        <mxCell id="J75yrZBXkFzWCFMRQMb1-17" value="" style="rounded=0;whiteSpace=wrap;html=1;" vertex="1" parent="1">
          <mxGeometry x="90" y="505" width="310" height="10" as="geometry" />
        </mxCell>
        <mxCell id="J75yrZBXkFzWCFMRQMb1-18" value="" style="rounded=0;whiteSpace=wrap;html=1;" vertex="1" parent="1">
          <mxGeometry x="90" y="515" width="310" height="10" as="geometry" />
        </mxCell>
        <mxCell id="J75yrZBXkFzWCFMRQMb1-19" value="" style="rounded=0;whiteSpace=wrap;html=1;" vertex="1" parent="1">
          <mxGeometry x="90" y="525" width="310" height="10" as="geometry" />
        </mxCell>
        <mxCell id="J75yrZBXkFzWCFMRQMb1-20" value="" style="rounded=0;whiteSpace=wrap;html=1;" vertex="1" parent="1">
          <mxGeometry x="90" y="535" width="310" height="10" as="geometry" />
        </mxCell>
        <mxCell id="J75yrZBXkFzWCFMRQMb1-21" value="Add row" style="rounded=0;whiteSpace=wrap;html=1;" vertex="1" parent="1">
          <mxGeometry x="90" y="545" width="60" height="10" as="geometry" />
        </mxCell>
        <mxCell id="J75yrZBXkFzWCFMRQMb1-23" value="" style="endArrow=none;html=1;rounded=0;entryX=0.163;entryY=0.128;entryDx=0;entryDy=0;entryPerimeter=0;exitX=0.841;exitY=0.097;exitDx=0;exitDy=0;exitPerimeter=0;" edge="1" parent="1" source="J75yrZBXkFzWCFMRQMb1-21" target="J75yrZBXkFzWCFMRQMb1-15">
          <mxGeometry width="50" height="50" relative="1" as="geometry">
            <mxPoint x="140" y="535" as="sourcePoint" />
            <mxPoint x="340" y="495" as="targetPoint" />
          </mxGeometry>
        </mxCell>
        <mxCell id="J75yrZBXkFzWCFMRQMb1-26" value="Totals" style="rounded=1;whiteSpace=wrap;html=1;" vertex="1" parent="1">
          <mxGeometry x="100" y="565" width="290" height="20" as="geometry" />
        </mxCell>
        <mxCell id="J75yrZBXkFzWCFMRQMb1-28" value="click" style="text;html=1;align=center;verticalAlign=middle;resizable=0;points=[];autosize=1;strokeColor=none;fillColor=none;" vertex="1" parent="1">
          <mxGeometry x="410" y="475" width="50" height="30" as="geometry" />
        </mxCell>
        <mxCell id="J75yrZBXkFzWCFMRQMb1-29" value="" style="rounded=0;whiteSpace=wrap;html=1;" vertex="1" parent="1">
          <mxGeometry x="490" y="475" width="80" height="190" as="geometry" />
        </mxCell>
        <mxCell id="J75yrZBXkFzWCFMRQMb1-30" value="Title" style="rounded=0;whiteSpace=wrap;html=1;" vertex="1" parent="1">
          <mxGeometry x="490" y="475" width="80" height="20" as="geometry" />
        </mxCell>
        <mxCell id="J75yrZBXkFzWCFMRQMb1-31" value="ID" style="rounded=0;whiteSpace=wrap;html=1;" vertex="1" parent="1">
          <mxGeometry x="490" y="495" width="80" height="20" as="geometry" />
        </mxCell>
        <mxCell id="J75yrZBXkFzWCFMRQMb1-32" value="Description" style="rounded=0;whiteSpace=wrap;html=1;" vertex="1" parent="1">
          <mxGeometry x="490" y="535" width="80" height="20" as="geometry" />
        </mxCell>
        <mxCell id="J75yrZBXkFzWCFMRQMb1-33" value="Date" style="rounded=0;whiteSpace=wrap;html=1;" vertex="1" parent="1">
          <mxGeometry x="490" y="515" width="80" height="20" as="geometry" />
        </mxCell>
        <mxCell id="J75yrZBXkFzWCFMRQMb1-34" value="Amount" style="rounded=0;whiteSpace=wrap;html=1;" vertex="1" parent="1">
          <mxGeometry x="490" y="555" width="80" height="20" as="geometry" />
        </mxCell>
        <mxCell id="J75yrZBXkFzWCFMRQMb1-35" value="Edit/ manage" style="rounded=0;whiteSpace=wrap;html=1;" vertex="1" parent="1">
          <mxGeometry x="500" y="595" width="60" height="30" as="geometry" />
        </mxCell>
        <mxCell id="J75yrZBXkFzWCFMRQMb1-36" value="Select" style="rounded=0;whiteSpace=wrap;html=1;" vertex="1" parent="1">
          <mxGeometry x="190" y="465" width="50" height="10" as="geometry" />
        </mxCell>
        <mxCell id="J75yrZBXkFzWCFMRQMb1-37" value="Delete" style="rounded=0;whiteSpace=wrap;html=1;" vertex="1" parent="1">
          <mxGeometry x="760" y="415" width="78.75" height="20" as="geometry" />
        </mxCell>
        <mxCell id="J75yrZBXkFzWCFMRQMb1-38" value="Exit" style="rounded=0;whiteSpace=wrap;html=1;" vertex="1" parent="1">
          <mxGeometry x="760" y="435" width="78.75" height="30" as="geometry" />
        </mxCell>
        <mxCell id="J75yrZBXkFzWCFMRQMb1-48" value="" style="endArrow=none;html=1;rounded=0;entryX=0.163;entryY=0.128;entryDx=0;entryDy=0;entryPerimeter=0;exitX=0.416;exitY=1.099;exitDx=0;exitDy=0;exitPerimeter=0;" edge="1" parent="1" source="J75yrZBXkFzWCFMRQMb1-20">
          <mxGeometry width="50" height="50" relative="1" as="geometry">
            <mxPoint x="217.62" y="545" as="sourcePoint" />
            <mxPoint x="218.62" y="485" as="targetPoint" />
          </mxGeometry>
        </mxCell>
        <mxCell id="J75yrZBXkFzWCFMRQMb1-49" value="" style="endArrow=none;html=1;rounded=0;entryX=0.163;entryY=0.128;entryDx=0;entryDy=0;entryPerimeter=0;exitX=0.416;exitY=1.099;exitDx=0;exitDy=0;exitPerimeter=0;" edge="1" parent="1">
          <mxGeometry width="50" height="50" relative="1" as="geometry">
            <mxPoint x="300.44" y="546" as="sourcePoint" />
            <mxPoint x="300.06" y="485" as="targetPoint" />
          </mxGeometry>
        </mxCell>
        <mxCell id="J75yrZBXkFzWCFMRQMb1-50" style="edgeStyle=orthogonalEdgeStyle;rounded=0;orthogonalLoop=1;jettySize=auto;html=1;exitX=0;exitY=0.5;exitDx=0;exitDy=0;entryX=0;entryY=0.5;entryDx=0;entryDy=0;" edge="1" parent="1" source="J75yrZBXkFzWCFMRQMb1-21" target="vlv6HzGZ7EN_tCv1F9UA-4">
          <mxGeometry relative="1" as="geometry">
            <Array as="points">
              <mxPoint x="20" y="550" />
              <mxPoint x="20" y="675" />
            </Array>
          </mxGeometry>
        </mxCell>
        <mxCell id="9kuOMTfxt9Iu0S0GJ2xO-4" style="edgeStyle=orthogonalEdgeStyle;rounded=0;orthogonalLoop=1;jettySize=auto;html=1;entryX=0.5;entryY=1;entryDx=0;entryDy=0;" edge="1" parent="1" source="J75yrZBXkFzWCFMRQMb1-51" target="9kuOMTfxt9Iu0S0GJ2xO-1">
          <mxGeometry relative="1" as="geometry" />
        </mxCell>
        <mxCell id="J75yrZBXkFzWCFMRQMb1-51" value="User is prompted to make changes to the income information&amp;nbsp;&amp;nbsp;" style="rounded=1;whiteSpace=wrap;html=1;" vertex="1" parent="1">
          <mxGeometry x="640" y="565" width="95" height="120" as="geometry" />
        </mxCell>
        <mxCell id="J75yrZBXkFzWCFMRQMb1-52" style="edgeStyle=orthogonalEdgeStyle;rounded=0;orthogonalLoop=1;jettySize=auto;html=1;entryX=-0.032;entryY=0.38;entryDx=0;entryDy=0;entryPerimeter=0;" edge="1" parent="1" source="J75yrZBXkFzWCFMRQMb1-35" target="J75yrZBXkFzWCFMRQMb1-51">
          <mxGeometry relative="1" as="geometry" />
        </mxCell>
        <mxCell id="J75yrZBXkFzWCFMRQMb1-64" value="" style="edgeStyle=orthogonalEdgeStyle;rounded=0;orthogonalLoop=1;jettySize=auto;html=1;" edge="1" parent="1" source="J75yrZBXkFzWCFMRQMb1-53" target="J75yrZBXkFzWCFMRQMb1-38">
          <mxGeometry relative="1" as="geometry">
            <Array as="points">
              <mxPoint x="750" y="453" />
              <mxPoint x="750" y="453" />
            </Array>
          </mxGeometry>
        </mxCell>
        <mxCell id="J75yrZBXkFzWCFMRQMb1-53" value="User is prompted to filter the income rows by headers or select with the option" style="rounded=1;whiteSpace=wrap;html=1;" vertex="1" parent="1">
          <mxGeometry x="610" y="400" width="97.5" height="105" as="geometry" />
        </mxCell>
        <mxCell id="J75yrZBXkFzWCFMRQMb1-57" value="manage/ edit" style="rounded=1;whiteSpace=wrap;html=1;" vertex="1" parent="1">
          <mxGeometry x="470.25" y="410" width="100" height="20" as="geometry" />
        </mxCell>
        <mxCell id="J75yrZBXkFzWCFMRQMb1-62" style="edgeStyle=orthogonalEdgeStyle;rounded=0;orthogonalLoop=1;jettySize=auto;html=1;entryX=-0.019;entryY=0.19;entryDx=0;entryDy=0;entryPerimeter=0;" edge="1" parent="1" source="J75yrZBXkFzWCFMRQMb1-57" target="J75yrZBXkFzWCFMRQMb1-53">
          <mxGeometry relative="1" as="geometry" />
        </mxCell>
        <mxCell id="J75yrZBXkFzWCFMRQMb1-63" style="edgeStyle=orthogonalEdgeStyle;rounded=0;orthogonalLoop=1;jettySize=auto;html=1;entryX=0;entryY=0.5;entryDx=0;entryDy=0;" edge="1" parent="1" source="J75yrZBXkFzWCFMRQMb1-7" target="J75yrZBXkFzWCFMRQMb1-57">
          <mxGeometry relative="1" as="geometry" />
        </mxCell>
        <mxCell id="jspn4wXfrkIhIk7FtJlB-1" value="back" style="rounded=0;whiteSpace=wrap;html=1;" vertex="1" parent="1">
          <mxGeometry x="79.5" y="405" width="30.25" height="30" as="geometry" />
        </mxCell>
        <mxCell id="9kuOMTfxt9Iu0S0GJ2xO-1" value="other options" style="rounded=0;whiteSpace=wrap;html=1;" vertex="1" parent="1">
          <mxGeometry x="760" y="465" width="78.75" height="30" as="geometry" />
        </mxCell>
        <mxCell id="9kuOMTfxt9Iu0S0GJ2xO-3" value="Exit" style="rounded=0;whiteSpace=wrap;html=1;" vertex="1" parent="1">
          <mxGeometry x="500" y="625" width="60" height="20" as="geometry" />
        </mxCell>
        <mxCell id="9kuOMTfxt9Iu0S0GJ2xO-6" value="All changes made are immediately updated in the database" style="text;html=1;align=center;verticalAlign=middle;resizable=0;points=[];autosize=1;strokeColor=none;fillColor=none;" vertex="1" parent="1">
          <mxGeometry x="188.25" y="330" width="360" height="30" as="geometry" />
        </mxCell>
        <mxCell id="9kuOMTfxt9Iu0S0GJ2xO-7" value="Include some Charts" style="rounded=0;whiteSpace=wrap;html=1;" vertex="1" parent="1">
          <mxGeometry x="450" y="245" width="120" height="60" as="geometry" />
        </mxCell>
      </root>
    </mxGraphModel>
  </diagram>
</mxfile>
